<mxfile host="65bd71144e" modified="2021-02-22T09:35:33.688Z" agent="5.0 (Macintosh; Intel Mac OS X 11_1_0) AppleWebKit/537.36 (KHTML, like Gecko) Code/1.53.2 Chrome/87.0.4280.141 Electron/11.2.1 Safari/537.36" etag="sHOSxRo7-nbSkVIN7St_" version="14.2.4" type="embed">
    <diagram name="Page-1" id="c4acf3e9-155e-7222-9cf6-157b1a14988f">
        <mxGraphModel dx="808" dy="580" grid="0" gridSize="10" guides="1" tooltips="1" connect="1" arrows="1" fold="1" page="1" pageScale="1" pageWidth="850" pageHeight="1100" background="#DAD2D8" math="0" shadow="0">
            <root>
                <mxCell id="0"/>
                <mxCell id="1" parent="0"/>
                <mxCell id="YACHoL5docVy_mTdtGhY-1" value="Product" style="shape=table;html=1;whiteSpace=wrap;startSize=30;container=1;collapsible=0;childLayout=tableLayout;fontStyle=1;align=center;fillColor=#FAE5C7;strokeColor=#0F8B8D;fontColor=#143642;" parent="1" vertex="1">
                    <mxGeometry x="18" y="433" width="239.5" height="235" as="geometry"/>
                </mxCell>
                <mxCell id="YACHoL5docVy_mTdtGhY-2" value="" style="shape=partialRectangle;html=1;whiteSpace=wrap;collapsible=0;dropTarget=0;pointerEvents=0;fillColor=none;top=0;left=0;bottom=0;right=0;points=[[0,0.5],[1,0.5]];portConstraint=eastwest;strokeColor=#0F8B8D;fontColor=#143642;" parent="YACHoL5docVy_mTdtGhY-1" vertex="1">
                    <mxGeometry y="30" width="239.5" height="30" as="geometry"/>
                </mxCell>
                <mxCell id="YACHoL5docVy_mTdtGhY-3" value="PK" style="shape=partialRectangle;html=1;whiteSpace=wrap;connectable=0;fillColor=none;top=0;left=0;bottom=0;right=0;overflow=hidden;strokeColor=#0F8B8D;fontColor=#143642;" parent="YACHoL5docVy_mTdtGhY-2" vertex="1">
                    <mxGeometry width="32" height="30" as="geometry"/>
                </mxCell>
                <mxCell id="YACHoL5docVy_mTdtGhY-4" value="&lt;span style=&quot;font-weight: 700&quot;&gt;ProductID&lt;/span&gt;" style="shape=partialRectangle;html=1;whiteSpace=wrap;connectable=0;fillColor=none;top=0;left=0;bottom=0;right=0;overflow=hidden;strokeColor=#0F8B8D;fontColor=#143642;" parent="YACHoL5docVy_mTdtGhY-2" vertex="1">
                    <mxGeometry x="32" width="108" height="30" as="geometry"/>
                </mxCell>
                <mxCell id="YACHoL5docVy_mTdtGhY-5" value="INT(10)" style="shape=partialRectangle;html=1;whiteSpace=wrap;connectable=0;fillColor=none;top=0;left=0;bottom=0;right=0;overflow=hidden;strokeColor=#0F8B8D;fontColor=#143642;" parent="YACHoL5docVy_mTdtGhY-2" vertex="1">
                    <mxGeometry x="140" width="100" height="30" as="geometry"/>
                </mxCell>
                <mxCell id="259" style="shape=partialRectangle;html=1;whiteSpace=wrap;collapsible=0;dropTarget=0;pointerEvents=0;fillColor=none;top=0;left=0;bottom=0;right=0;points=[[0,0.5],[1,0.5]];portConstraint=eastwest;strokeColor=#0F8B8D;fontColor=#143642;" parent="YACHoL5docVy_mTdtGhY-1" vertex="1">
                    <mxGeometry y="60" width="239.5" height="29" as="geometry"/>
                </mxCell>
                <mxCell id="260" value="FK" style="shape=partialRectangle;html=1;whiteSpace=wrap;connectable=0;fillColor=none;top=0;left=0;bottom=0;right=0;overflow=hidden;strokeColor=#0F8B8D;fontColor=#143642;" parent="259" vertex="1">
                    <mxGeometry width="32" height="29" as="geometry"/>
                </mxCell>
                <mxCell id="261" value="&lt;span&gt;CategoryDetailsID&lt;/span&gt;" style="shape=partialRectangle;html=1;whiteSpace=wrap;connectable=0;fillColor=none;top=0;left=0;bottom=0;right=0;overflow=hidden;strokeColor=#0F8B8D;fontColor=#143642;" parent="259" vertex="1">
                    <mxGeometry x="32" width="108" height="29" as="geometry"/>
                </mxCell>
                <mxCell id="262" value="&lt;span&gt;INT(10)&lt;/span&gt;" style="shape=partialRectangle;html=1;whiteSpace=wrap;connectable=0;fillColor=none;top=0;left=0;bottom=0;right=0;overflow=hidden;strokeColor=#0F8B8D;fontColor=#143642;" parent="259" vertex="1">
                    <mxGeometry x="140" width="100" height="29" as="geometry"/>
                </mxCell>
                <mxCell id="YACHoL5docVy_mTdtGhY-6" value="" style="shape=partialRectangle;html=1;whiteSpace=wrap;collapsible=0;dropTarget=0;pointerEvents=0;fillColor=none;top=0;left=0;bottom=0;right=0;points=[[0,0.5],[1,0.5]];portConstraint=eastwest;strokeColor=#0F8B8D;fontColor=#143642;" parent="YACHoL5docVy_mTdtGhY-1" vertex="1">
                    <mxGeometry y="89" width="239.5" height="29" as="geometry"/>
                </mxCell>
                <mxCell id="YACHoL5docVy_mTdtGhY-7" value="" style="shape=partialRectangle;html=1;whiteSpace=wrap;connectable=0;fillColor=none;top=0;left=0;bottom=0;right=0;overflow=hidden;strokeColor=#0F8B8D;fontColor=#143642;" parent="YACHoL5docVy_mTdtGhY-6" vertex="1">
                    <mxGeometry width="32" height="29" as="geometry"/>
                </mxCell>
                <mxCell id="YACHoL5docVy_mTdtGhY-8" value="&lt;span style=&quot;text-align: left&quot;&gt;productName&lt;/span&gt;" style="shape=partialRectangle;html=1;whiteSpace=wrap;connectable=0;fillColor=none;top=0;left=0;bottom=0;right=0;overflow=hidden;strokeColor=#0F8B8D;fontColor=#143642;" parent="YACHoL5docVy_mTdtGhY-6" vertex="1">
                    <mxGeometry x="32" width="108" height="29" as="geometry"/>
                </mxCell>
                <mxCell id="YACHoL5docVy_mTdtGhY-9" value="&lt;span&gt;VARCHAR(50)&lt;/span&gt;" style="shape=partialRectangle;html=1;whiteSpace=wrap;connectable=0;fillColor=none;top=0;left=0;bottom=0;right=0;overflow=hidden;strokeColor=#0F8B8D;fontColor=#143642;" parent="YACHoL5docVy_mTdtGhY-6" vertex="1">
                    <mxGeometry x="140" width="100" height="29" as="geometry"/>
                </mxCell>
                <mxCell id="YACHoL5docVy_mTdtGhY-10" value="" style="shape=partialRectangle;html=1;whiteSpace=wrap;collapsible=0;dropTarget=0;pointerEvents=0;fillColor=none;top=0;left=0;bottom=0;right=0;points=[[0,0.5],[1,0.5]];portConstraint=eastwest;strokeColor=#0F8B8D;fontColor=#143642;" parent="YACHoL5docVy_mTdtGhY-1" vertex="1">
                    <mxGeometry y="118" width="239.5" height="30" as="geometry"/>
                </mxCell>
                <mxCell id="YACHoL5docVy_mTdtGhY-11" value="" style="shape=partialRectangle;html=1;whiteSpace=wrap;connectable=0;fillColor=none;top=0;left=0;bottom=0;right=0;overflow=hidden;strokeColor=#0F8B8D;fontColor=#143642;" parent="YACHoL5docVy_mTdtGhY-10" vertex="1">
                    <mxGeometry width="32" height="30" as="geometry"/>
                </mxCell>
                <mxCell id="YACHoL5docVy_mTdtGhY-12" value="&lt;span style=&quot;text-align: left&quot;&gt;description&lt;/span&gt;" style="shape=partialRectangle;html=1;whiteSpace=wrap;connectable=0;fillColor=none;top=0;left=0;bottom=0;right=0;overflow=hidden;strokeColor=#0F8B8D;fontColor=#143642;" parent="YACHoL5docVy_mTdtGhY-10" vertex="1">
                    <mxGeometry x="32" width="108" height="30" as="geometry"/>
                </mxCell>
                <mxCell id="YACHoL5docVy_mTdtGhY-13" value="VARCHAR(200)" style="shape=partialRectangle;html=1;whiteSpace=wrap;connectable=0;fillColor=none;top=0;left=0;bottom=0;right=0;overflow=hidden;strokeColor=#0F8B8D;fontColor=#143642;" parent="YACHoL5docVy_mTdtGhY-10" vertex="1">
                    <mxGeometry x="140" width="100" height="30" as="geometry"/>
                </mxCell>
                <mxCell id="15" value="" style="shape=partialRectangle;html=1;whiteSpace=wrap;collapsible=0;dropTarget=0;pointerEvents=0;fillColor=none;top=0;left=0;bottom=0;right=0;points=[[0,0.5],[1,0.5]];portConstraint=eastwest;strokeColor=#0F8B8D;fontColor=#143642;" parent="YACHoL5docVy_mTdtGhY-1" vertex="1">
                    <mxGeometry y="148" width="239.5" height="29" as="geometry"/>
                </mxCell>
                <mxCell id="16" value="" style="shape=partialRectangle;html=1;whiteSpace=wrap;connectable=0;fillColor=none;top=0;left=0;bottom=0;right=0;overflow=hidden;strokeColor=#0F8B8D;fontColor=#143642;" parent="15" vertex="1">
                    <mxGeometry width="32" height="29" as="geometry"/>
                </mxCell>
                <mxCell id="17" value="&lt;span style=&quot;text-align: left&quot;&gt;price&lt;/span&gt;" style="shape=partialRectangle;html=1;whiteSpace=wrap;connectable=0;fillColor=none;top=0;left=0;bottom=0;right=0;overflow=hidden;strokeColor=#0F8B8D;fontColor=#143642;" parent="15" vertex="1">
                    <mxGeometry x="32" width="108" height="29" as="geometry"/>
                </mxCell>
                <mxCell id="18" value="&lt;span&gt;INT(4)&lt;/span&gt;" style="shape=partialRectangle;html=1;whiteSpace=wrap;connectable=0;fillColor=none;top=0;left=0;bottom=0;right=0;overflow=hidden;strokeColor=#0F8B8D;fontColor=#143642;" parent="15" vertex="1">
                    <mxGeometry x="140" width="100" height="29" as="geometry"/>
                </mxCell>
                <mxCell id="7CMeh297SP7o4FMxIKgV-269" style="shape=partialRectangle;html=1;whiteSpace=wrap;collapsible=0;dropTarget=0;pointerEvents=0;fillColor=none;top=0;left=0;bottom=0;right=0;points=[[0,0.5],[1,0.5]];portConstraint=eastwest;strokeColor=#0F8B8D;fontColor=#143642;" parent="YACHoL5docVy_mTdtGhY-1" vertex="1">
                    <mxGeometry y="177" width="239.5" height="29" as="geometry"/>
                </mxCell>
                <mxCell id="7CMeh297SP7o4FMxIKgV-270" style="shape=partialRectangle;html=1;whiteSpace=wrap;connectable=0;fillColor=none;top=0;left=0;bottom=0;right=0;overflow=hidden;strokeColor=#0F8B8D;fontColor=#143642;" parent="7CMeh297SP7o4FMxIKgV-269" vertex="1">
                    <mxGeometry width="32" height="29" as="geometry"/>
                </mxCell>
                <mxCell id="7CMeh297SP7o4FMxIKgV-271" value="inStock" style="shape=partialRectangle;html=1;whiteSpace=wrap;connectable=0;fillColor=none;top=0;left=0;bottom=0;right=0;overflow=hidden;strokeColor=#0F8B8D;fontColor=#143642;" parent="7CMeh297SP7o4FMxIKgV-269" vertex="1">
                    <mxGeometry x="32" width="108" height="29" as="geometry"/>
                </mxCell>
                <mxCell id="7CMeh297SP7o4FMxIKgV-272" value="INT(4)" style="shape=partialRectangle;html=1;whiteSpace=wrap;connectable=0;fillColor=none;top=0;left=0;bottom=0;right=0;overflow=hidden;strokeColor=#0F8B8D;fontColor=#143642;" parent="7CMeh297SP7o4FMxIKgV-269" vertex="1">
                    <mxGeometry x="140" width="100" height="29" as="geometry"/>
                </mxCell>
                <mxCell id="7CMeh297SP7o4FMxIKgV-273" style="shape=partialRectangle;html=1;whiteSpace=wrap;collapsible=0;dropTarget=0;pointerEvents=0;fillColor=none;top=0;left=0;bottom=0;right=0;points=[[0,0.5],[1,0.5]];portConstraint=eastwest;strokeColor=#0F8B8D;fontColor=#143642;" parent="YACHoL5docVy_mTdtGhY-1" vertex="1">
                    <mxGeometry y="206" width="239.5" height="29" as="geometry"/>
                </mxCell>
                <mxCell id="7CMeh297SP7o4FMxIKgV-274" style="shape=partialRectangle;html=1;whiteSpace=wrap;connectable=0;fillColor=none;top=0;left=0;bottom=0;right=0;overflow=hidden;strokeColor=#0F8B8D;fontColor=#143642;" parent="7CMeh297SP7o4FMxIKgV-273" vertex="1">
                    <mxGeometry width="32" height="29" as="geometry"/>
                </mxCell>
                <mxCell id="7CMeh297SP7o4FMxIKgV-275" value="Discount" style="shape=partialRectangle;html=1;whiteSpace=wrap;connectable=0;fillColor=none;top=0;left=0;bottom=0;right=0;overflow=hidden;strokeColor=#0F8B8D;fontColor=#143642;" parent="7CMeh297SP7o4FMxIKgV-273" vertex="1">
                    <mxGeometry x="32" width="108" height="29" as="geometry"/>
                </mxCell>
                <mxCell id="7CMeh297SP7o4FMxIKgV-276" value="FLOAT(3)" style="shape=partialRectangle;html=1;whiteSpace=wrap;connectable=0;fillColor=none;top=0;left=0;bottom=0;right=0;overflow=hidden;strokeColor=#0F8B8D;fontColor=#143642;" parent="7CMeh297SP7o4FMxIKgV-273" vertex="1">
                    <mxGeometry x="140" width="100" height="29" as="geometry"/>
                </mxCell>
                <mxCell id="24" value="ADMIN" style="shape=table;html=1;whiteSpace=wrap;startSize=25;container=1;collapsible=0;childLayout=tableLayout;fontStyle=1;align=center;fillColor=#FAE5C7;strokeColor=#0F8B8D;fontColor=#143642;" parent="1" vertex="1">
                    <mxGeometry x="387" y="218" width="180" height="147" as="geometry"/>
                </mxCell>
                <mxCell id="25" value="" style="shape=partialRectangle;html=1;whiteSpace=wrap;collapsible=0;dropTarget=0;pointerEvents=0;fillColor=none;top=0;left=0;bottom=0;right=0;points=[[0,0.5],[1,0.5]];portConstraint=eastwest;strokeColor=#0F8B8D;fontColor=#143642;" parent="24" vertex="1">
                    <mxGeometry y="25" width="180" height="31" as="geometry"/>
                </mxCell>
                <mxCell id="26" value="PK" style="shape=partialRectangle;html=1;whiteSpace=wrap;connectable=0;fillColor=none;top=0;left=0;bottom=0;right=0;overflow=hidden;strokeColor=#0F8B8D;fontColor=#143642;" parent="25" vertex="1">
                    <mxGeometry width="30" height="31" as="geometry"/>
                </mxCell>
                <mxCell id="27" value="&lt;span&gt;AdmnistratorID&lt;/span&gt;" style="shape=partialRectangle;html=1;whiteSpace=wrap;connectable=0;fillColor=none;top=0;left=0;bottom=0;right=0;overflow=hidden;strokeColor=#0F8B8D;fontColor=#143642;" parent="25" vertex="1">
                    <mxGeometry x="30" width="102" height="31" as="geometry"/>
                </mxCell>
                <mxCell id="28" value="INT(10)" style="shape=partialRectangle;html=1;whiteSpace=wrap;connectable=0;fillColor=none;top=0;left=0;bottom=0;right=0;overflow=hidden;strokeColor=#0F8B8D;fontColor=#143642;" parent="25" vertex="1">
                    <mxGeometry x="132" width="48" height="31" as="geometry"/>
                </mxCell>
                <mxCell id="29" value="" style="shape=partialRectangle;html=1;whiteSpace=wrap;collapsible=0;dropTarget=0;pointerEvents=0;fillColor=none;top=0;left=0;bottom=0;right=0;points=[[0,0.5],[1,0.5]];portConstraint=eastwest;strokeColor=#0F8B8D;fontColor=#143642;" parent="24" vertex="1">
                    <mxGeometry y="56" width="180" height="31" as="geometry"/>
                </mxCell>
                <mxCell id="30" value="" style="shape=partialRectangle;html=1;whiteSpace=wrap;connectable=0;fillColor=none;top=0;left=0;bottom=0;right=0;overflow=hidden;strokeColor=#0F8B8D;fontColor=#143642;" parent="29" vertex="1">
                    <mxGeometry width="30" height="31" as="geometry"/>
                </mxCell>
                <mxCell id="31" value="&lt;span style=&quot;text-align: left&quot;&gt;SERVER&lt;/span&gt;" style="shape=partialRectangle;html=1;whiteSpace=wrap;connectable=0;fillColor=none;top=0;left=0;bottom=0;right=0;overflow=hidden;strokeColor=#0F8B8D;fontColor=#143642;" parent="29" vertex="1">
                    <mxGeometry x="30" width="102" height="31" as="geometry"/>
                </mxCell>
                <mxCell id="32" value="&lt;span&gt;INT(10)&lt;/span&gt;" style="shape=partialRectangle;html=1;whiteSpace=wrap;connectable=0;fillColor=none;top=0;left=0;bottom=0;right=0;overflow=hidden;strokeColor=#0F8B8D;fontColor=#143642;" parent="29" vertex="1">
                    <mxGeometry x="132" width="48" height="31" as="geometry"/>
                </mxCell>
                <mxCell id="212" style="shape=partialRectangle;html=1;whiteSpace=wrap;collapsible=0;dropTarget=0;pointerEvents=0;fillColor=none;top=0;left=0;bottom=0;right=0;points=[[0,0.5],[1,0.5]];portConstraint=eastwest;strokeColor=#0F8B8D;fontColor=#143642;" parent="24" vertex="1">
                    <mxGeometry y="87" width="180" height="30" as="geometry"/>
                </mxCell>
                <mxCell id="213" style="shape=partialRectangle;html=1;whiteSpace=wrap;connectable=0;fillColor=none;top=0;left=0;bottom=0;right=0;overflow=hidden;strokeColor=#0F8B8D;fontColor=#143642;" parent="212" vertex="1">
                    <mxGeometry width="30" height="30" as="geometry"/>
                </mxCell>
                <mxCell id="214" value="Login" style="shape=partialRectangle;html=1;whiteSpace=wrap;connectable=0;fillColor=none;top=0;left=0;bottom=0;right=0;overflow=hidden;strokeColor=#0F8B8D;fontColor=#143642;" parent="212" vertex="1">
                    <mxGeometry x="30" width="102" height="30" as="geometry"/>
                </mxCell>
                <mxCell id="215" value="&lt;span&gt;INT(10)&lt;/span&gt;" style="shape=partialRectangle;html=1;whiteSpace=wrap;connectable=0;fillColor=none;top=0;left=0;bottom=0;right=0;overflow=hidden;strokeColor=#0F8B8D;fontColor=#143642;" parent="212" vertex="1">
                    <mxGeometry x="132" width="48" height="30" as="geometry"/>
                </mxCell>
                <mxCell id="216" style="shape=partialRectangle;html=1;whiteSpace=wrap;collapsible=0;dropTarget=0;pointerEvents=0;fillColor=none;top=0;left=0;bottom=0;right=0;points=[[0,0.5],[1,0.5]];portConstraint=eastwest;strokeColor=#0F8B8D;fontColor=#143642;" parent="24" vertex="1">
                    <mxGeometry y="117" width="180" height="30" as="geometry"/>
                </mxCell>
                <mxCell id="217" style="shape=partialRectangle;html=1;whiteSpace=wrap;connectable=0;fillColor=none;top=0;left=0;bottom=0;right=0;overflow=hidden;strokeColor=#0F8B8D;fontColor=#143642;" parent="216" vertex="1">
                    <mxGeometry width="30" height="30" as="geometry"/>
                </mxCell>
                <mxCell id="218" value="Password" style="shape=partialRectangle;html=1;whiteSpace=wrap;connectable=0;fillColor=none;top=0;left=0;bottom=0;right=0;overflow=hidden;strokeColor=#0F8B8D;fontColor=#143642;" parent="216" vertex="1">
                    <mxGeometry x="30" width="102" height="30" as="geometry"/>
                </mxCell>
                <mxCell id="219" value="&lt;span&gt;INT(10)&lt;/span&gt;" style="shape=partialRectangle;html=1;whiteSpace=wrap;connectable=0;fillColor=none;top=0;left=0;bottom=0;right=0;overflow=hidden;strokeColor=#0F8B8D;fontColor=#143642;" parent="216" vertex="1">
                    <mxGeometry x="132" width="48" height="30" as="geometry"/>
                </mxCell>
                <mxCell id="72" value="CUSTOMER" style="shape=table;html=1;whiteSpace=wrap;startSize=30;container=1;collapsible=0;childLayout=tableLayout;fontStyle=1;align=center;fillColor=#FAE5C7;strokeColor=#0F8B8D;fontColor=#143642;" parent="1" vertex="1">
                    <mxGeometry x="714" y="32" width="329" height="311" as="geometry"/>
                </mxCell>
                <mxCell id="73" value="" style="shape=partialRectangle;html=1;whiteSpace=wrap;collapsible=0;dropTarget=0;pointerEvents=0;fillColor=none;top=0;left=0;bottom=0;right=0;points=[[0,0.5],[1,0.5]];portConstraint=eastwest;strokeColor=#0F8B8D;fontColor=#143642;" parent="72" vertex="1">
                    <mxGeometry y="30" width="329" height="31" as="geometry"/>
                </mxCell>
                <mxCell id="74" value="PK" style="shape=partialRectangle;html=1;whiteSpace=wrap;connectable=0;fillColor=none;top=0;left=0;bottom=0;right=0;overflow=hidden;strokeColor=#0F8B8D;fontColor=#143642;" parent="73" vertex="1">
                    <mxGeometry width="56" height="31" as="geometry"/>
                </mxCell>
                <mxCell id="75" value="&lt;span&gt;CustomerID&lt;/span&gt;" style="shape=partialRectangle;html=1;whiteSpace=wrap;connectable=0;fillColor=none;top=0;left=0;bottom=0;right=0;overflow=hidden;strokeColor=#0F8B8D;fontColor=#143642;" parent="73" vertex="1">
                    <mxGeometry x="56" width="185" height="31" as="geometry"/>
                </mxCell>
                <mxCell id="76" value="INT(10)" style="shape=partialRectangle;html=1;whiteSpace=wrap;connectable=0;fillColor=none;top=0;left=0;bottom=0;right=0;overflow=hidden;strokeColor=#0F8B8D;fontColor=#143642;" parent="73" vertex="1">
                    <mxGeometry x="241" width="88" height="31" as="geometry"/>
                </mxCell>
                <mxCell id="251" style="shape=partialRectangle;html=1;whiteSpace=wrap;collapsible=0;dropTarget=0;pointerEvents=0;fillColor=none;top=0;left=0;bottom=0;right=0;points=[[0,0.5],[1,0.5]];portConstraint=eastwest;strokeColor=#0F8B8D;fontColor=#143642;" parent="72" vertex="1">
                    <mxGeometry y="61" width="329" height="32" as="geometry"/>
                </mxCell>
                <mxCell id="252" value="FK" style="shape=partialRectangle;html=1;whiteSpace=wrap;connectable=0;fillColor=none;top=0;left=0;bottom=0;right=0;overflow=hidden;strokeColor=#0F8B8D;fontColor=#143642;" parent="251" vertex="1">
                    <mxGeometry width="56" height="32" as="geometry"/>
                </mxCell>
                <mxCell id="253" value="OrderID" style="shape=partialRectangle;html=1;whiteSpace=wrap;connectable=0;fillColor=none;top=0;left=0;bottom=0;right=0;overflow=hidden;strokeColor=#0F8B8D;fontColor=#143642;" parent="251" vertex="1">
                    <mxGeometry x="56" width="185" height="32" as="geometry"/>
                </mxCell>
                <mxCell id="254" value="INT(10)" style="shape=partialRectangle;html=1;whiteSpace=wrap;connectable=0;fillColor=none;top=0;left=0;bottom=0;right=0;overflow=hidden;strokeColor=#0F8B8D;fontColor=#143642;" parent="251" vertex="1">
                    <mxGeometry x="241" width="88" height="32" as="geometry"/>
                </mxCell>
                <mxCell id="77" value="" style="shape=partialRectangle;html=1;whiteSpace=wrap;collapsible=0;dropTarget=0;pointerEvents=0;fillColor=none;top=0;left=0;bottom=0;right=0;points=[[0,0.5],[1,0.5]];portConstraint=eastwest;strokeColor=#0F8B8D;fontColor=#143642;" parent="72" vertex="1">
                    <mxGeometry y="93" width="329" height="30" as="geometry"/>
                </mxCell>
                <mxCell id="78" value="" style="shape=partialRectangle;html=1;whiteSpace=wrap;connectable=0;fillColor=none;top=0;left=0;bottom=0;right=0;overflow=hidden;strokeColor=#0F8B8D;fontColor=#143642;" parent="77" vertex="1">
                    <mxGeometry width="56" height="30" as="geometry"/>
                </mxCell>
                <mxCell id="79" value="&lt;span style=&quot;text-align: left&quot;&gt;Account&lt;/span&gt;" style="shape=partialRectangle;html=1;whiteSpace=wrap;connectable=0;fillColor=none;top=0;left=0;bottom=0;right=0;overflow=hidden;strokeColor=#0F8B8D;fontColor=#143642;" parent="77" vertex="1">
                    <mxGeometry x="56" width="185" height="30" as="geometry"/>
                </mxCell>
                <mxCell id="80" value="&lt;span&gt;INT(10)&lt;/span&gt;" style="shape=partialRectangle;html=1;whiteSpace=wrap;connectable=0;fillColor=none;top=0;left=0;bottom=0;right=0;overflow=hidden;strokeColor=#0F8B8D;fontColor=#143642;" parent="77" vertex="1">
                    <mxGeometry x="241" width="88" height="30" as="geometry"/>
                </mxCell>
                <mxCell id="81" value="" style="shape=partialRectangle;html=1;whiteSpace=wrap;collapsible=0;dropTarget=0;pointerEvents=0;fillColor=none;top=0;left=0;bottom=0;right=0;points=[[0,0.5],[1,0.5]];portConstraint=eastwest;strokeColor=#0F8B8D;fontColor=#143642;" parent="72" vertex="1">
                    <mxGeometry y="123" width="329" height="31" as="geometry"/>
                </mxCell>
                <mxCell id="82" value="" style="shape=partialRectangle;html=1;whiteSpace=wrap;connectable=0;fillColor=none;top=0;left=0;bottom=0;right=0;overflow=hidden;strokeColor=#0F8B8D;fontColor=#143642;" parent="81" vertex="1">
                    <mxGeometry width="56" height="31" as="geometry"/>
                </mxCell>
                <mxCell id="83" value="&lt;span style=&quot;text-align: left&quot;&gt;Mail&lt;/span&gt;" style="shape=partialRectangle;html=1;whiteSpace=wrap;connectable=0;fillColor=none;top=0;left=0;bottom=0;right=0;overflow=hidden;strokeColor=#0F8B8D;fontColor=#143642;" parent="81" vertex="1">
                    <mxGeometry x="56" width="185" height="31" as="geometry"/>
                </mxCell>
                <mxCell id="84" value="&lt;span&gt;VARCHAR(200)&lt;/span&gt;" style="shape=partialRectangle;html=1;whiteSpace=wrap;connectable=0;fillColor=none;top=0;left=0;bottom=0;right=0;overflow=hidden;strokeColor=#0F8B8D;fontColor=#143642;" parent="81" vertex="1">
                    <mxGeometry x="241" width="88" height="31" as="geometry"/>
                </mxCell>
                <mxCell id="192" style="shape=partialRectangle;html=1;whiteSpace=wrap;collapsible=0;dropTarget=0;pointerEvents=0;fillColor=none;top=0;left=0;bottom=0;right=0;points=[[0,0.5],[1,0.5]];portConstraint=eastwest;strokeColor=#0F8B8D;fontColor=#143642;" parent="72" vertex="1">
                    <mxGeometry y="154" width="329" height="32" as="geometry"/>
                </mxCell>
                <mxCell id="193" style="shape=partialRectangle;html=1;whiteSpace=wrap;connectable=0;fillColor=none;top=0;left=0;bottom=0;right=0;overflow=hidden;strokeColor=#0F8B8D;fontColor=#143642;" parent="192" vertex="1">
                    <mxGeometry width="56" height="32" as="geometry"/>
                </mxCell>
                <mxCell id="194" value="FirstName" style="shape=partialRectangle;html=1;whiteSpace=wrap;connectable=0;fillColor=none;top=0;left=0;bottom=0;right=0;overflow=hidden;strokeColor=#0F8B8D;fontColor=#143642;" parent="192" vertex="1">
                    <mxGeometry x="56" width="185" height="32" as="geometry"/>
                </mxCell>
                <mxCell id="195" value="&lt;span&gt;INT(10)&lt;/span&gt;" style="shape=partialRectangle;html=1;whiteSpace=wrap;connectable=0;fillColor=none;top=0;left=0;bottom=0;right=0;overflow=hidden;strokeColor=#0F8B8D;fontColor=#143642;" parent="192" vertex="1">
                    <mxGeometry x="241" width="88" height="32" as="geometry"/>
                </mxCell>
                <mxCell id="196" style="shape=partialRectangle;html=1;whiteSpace=wrap;collapsible=0;dropTarget=0;pointerEvents=0;fillColor=none;top=0;left=0;bottom=0;right=0;points=[[0,0.5],[1,0.5]];portConstraint=eastwest;strokeColor=#0F8B8D;fontColor=#143642;" parent="72" vertex="1">
                    <mxGeometry y="186" width="329" height="31" as="geometry"/>
                </mxCell>
                <mxCell id="197" style="shape=partialRectangle;html=1;whiteSpace=wrap;connectable=0;fillColor=none;top=0;left=0;bottom=0;right=0;overflow=hidden;strokeColor=#0F8B8D;fontColor=#143642;" parent="196" vertex="1">
                    <mxGeometry width="56" height="31" as="geometry"/>
                </mxCell>
                <mxCell id="198" value="LastName" style="shape=partialRectangle;html=1;whiteSpace=wrap;connectable=0;fillColor=none;top=0;left=0;bottom=0;right=0;overflow=hidden;strokeColor=#0F8B8D;fontColor=#143642;" parent="196" vertex="1">
                    <mxGeometry x="56" width="185" height="31" as="geometry"/>
                </mxCell>
                <mxCell id="199" value="&lt;span&gt;INT(10)&lt;/span&gt;" style="shape=partialRectangle;html=1;whiteSpace=wrap;connectable=0;fillColor=none;top=0;left=0;bottom=0;right=0;overflow=hidden;strokeColor=#0F8B8D;fontColor=#143642;" parent="196" vertex="1">
                    <mxGeometry x="241" width="88" height="31" as="geometry"/>
                </mxCell>
                <mxCell id="200" style="shape=partialRectangle;html=1;whiteSpace=wrap;collapsible=0;dropTarget=0;pointerEvents=0;fillColor=none;top=0;left=0;bottom=0;right=0;points=[[0,0.5],[1,0.5]];portConstraint=eastwest;strokeColor=#0F8B8D;fontColor=#143642;" parent="72" vertex="1">
                    <mxGeometry y="217" width="329" height="31" as="geometry"/>
                </mxCell>
                <mxCell id="201" style="shape=partialRectangle;html=1;whiteSpace=wrap;connectable=0;fillColor=none;top=0;left=0;bottom=0;right=0;overflow=hidden;strokeColor=#0F8B8D;fontColor=#143642;" parent="200" vertex="1">
                    <mxGeometry width="56" height="31" as="geometry"/>
                </mxCell>
                <mxCell id="202" value="UserCountry" style="shape=partialRectangle;html=1;whiteSpace=wrap;connectable=0;fillColor=none;top=0;left=0;bottom=0;right=0;overflow=hidden;strokeColor=#0F8B8D;fontColor=#143642;" parent="200" vertex="1">
                    <mxGeometry x="56" width="185" height="31" as="geometry"/>
                </mxCell>
                <mxCell id="203" value="&lt;span&gt;INT(10)&lt;/span&gt;" style="shape=partialRectangle;html=1;whiteSpace=wrap;connectable=0;fillColor=none;top=0;left=0;bottom=0;right=0;overflow=hidden;strokeColor=#0F8B8D;fontColor=#143642;" parent="200" vertex="1">
                    <mxGeometry x="241" width="88" height="31" as="geometry"/>
                </mxCell>
                <mxCell id="204" style="shape=partialRectangle;html=1;whiteSpace=wrap;collapsible=0;dropTarget=0;pointerEvents=0;fillColor=none;top=0;left=0;bottom=0;right=0;points=[[0,0.5],[1,0.5]];portConstraint=eastwest;strokeColor=#0F8B8D;fontColor=#143642;" parent="72" vertex="1">
                    <mxGeometry y="248" width="329" height="32" as="geometry"/>
                </mxCell>
                <mxCell id="205" style="shape=partialRectangle;html=1;whiteSpace=wrap;connectable=0;fillColor=none;top=0;left=0;bottom=0;right=0;overflow=hidden;strokeColor=#0F8B8D;fontColor=#143642;" parent="204" vertex="1">
                    <mxGeometry width="56" height="32" as="geometry"/>
                </mxCell>
                <mxCell id="206" value="UserAdress" style="shape=partialRectangle;html=1;whiteSpace=wrap;connectable=0;fillColor=none;top=0;left=0;bottom=0;right=0;overflow=hidden;strokeColor=#0F8B8D;fontColor=#143642;" parent="204" vertex="1">
                    <mxGeometry x="56" width="185" height="32" as="geometry"/>
                </mxCell>
                <mxCell id="207" value="&lt;span&gt;INT(10)&lt;/span&gt;" style="shape=partialRectangle;html=1;whiteSpace=wrap;connectable=0;fillColor=none;top=0;left=0;bottom=0;right=0;overflow=hidden;strokeColor=#0F8B8D;fontColor=#143642;" parent="204" vertex="1">
                    <mxGeometry x="241" width="88" height="32" as="geometry"/>
                </mxCell>
                <mxCell id="208" style="shape=partialRectangle;html=1;whiteSpace=wrap;collapsible=0;dropTarget=0;pointerEvents=0;fillColor=none;top=0;left=0;bottom=0;right=0;points=[[0,0.5],[1,0.5]];portConstraint=eastwest;strokeColor=#0F8B8D;fontColor=#143642;" parent="72" vertex="1">
                    <mxGeometry y="280" width="329" height="31" as="geometry"/>
                </mxCell>
                <mxCell id="209" style="shape=partialRectangle;html=1;whiteSpace=wrap;connectable=0;fillColor=none;top=0;left=0;bottom=0;right=0;overflow=hidden;strokeColor=#0F8B8D;fontColor=#143642;" parent="208" vertex="1">
                    <mxGeometry width="56" height="31" as="geometry"/>
                </mxCell>
                <mxCell id="210" value="ZipCODE" style="shape=partialRectangle;html=1;whiteSpace=wrap;connectable=0;fillColor=none;top=0;left=0;bottom=0;right=0;overflow=hidden;strokeColor=#0F8B8D;fontColor=#143642;" parent="208" vertex="1">
                    <mxGeometry x="56" width="185" height="31" as="geometry"/>
                </mxCell>
                <mxCell id="211" value="&lt;span&gt;INT(10)&lt;/span&gt;" style="shape=partialRectangle;html=1;whiteSpace=wrap;connectable=0;fillColor=none;top=0;left=0;bottom=0;right=0;overflow=hidden;strokeColor=#0F8B8D;fontColor=#143642;" parent="208" vertex="1">
                    <mxGeometry x="241" width="88" height="31" as="geometry"/>
                </mxCell>
                <mxCell id="120" value="ORDER" style="shape=table;html=1;whiteSpace=wrap;startSize=30;container=1;collapsible=0;childLayout=tableLayout;fontStyle=1;align=center;fillColor=#FAE5C7;strokeColor=#0F8B8D;fontColor=#143642;" parent="1" vertex="1">
                    <mxGeometry x="626" y="457" width="210" height="298" as="geometry"/>
                </mxCell>
                <mxCell id="121" value="" style="shape=partialRectangle;html=1;whiteSpace=wrap;collapsible=0;dropTarget=0;pointerEvents=0;fillColor=none;top=0;left=0;bottom=0;right=0;points=[[0,0.5],[1,0.5]];portConstraint=eastwest;strokeColor=#0F8B8D;fontColor=#143642;" parent="120" vertex="1">
                    <mxGeometry y="30" width="210" height="30" as="geometry"/>
                </mxCell>
                <mxCell id="122" value="PK" style="shape=partialRectangle;html=1;whiteSpace=wrap;connectable=0;fillColor=none;top=0;left=0;bottom=0;right=0;overflow=hidden;strokeColor=#0F8B8D;fontColor=#143642;" parent="121" vertex="1">
                    <mxGeometry width="28" height="30" as="geometry"/>
                </mxCell>
                <mxCell id="123" value="&lt;span&gt;OrderID&lt;/span&gt;" style="shape=partialRectangle;html=1;whiteSpace=wrap;connectable=0;fillColor=none;top=0;left=0;bottom=0;right=0;overflow=hidden;strokeColor=#0F8B8D;fontColor=#143642;" parent="121" vertex="1">
                    <mxGeometry x="28" width="100" height="30" as="geometry"/>
                </mxCell>
                <mxCell id="124" value="&lt;span&gt;INT(10)&lt;/span&gt;" style="shape=partialRectangle;html=1;whiteSpace=wrap;connectable=0;fillColor=none;top=0;left=0;bottom=0;right=0;overflow=hidden;strokeColor=#0F8B8D;fontColor=#143642;" parent="121" vertex="1">
                    <mxGeometry x="128" width="82" height="30" as="geometry"/>
                </mxCell>
                <mxCell id="ivW9iHV96__MKiOfjKR5-309" style="shape=partialRectangle;html=1;whiteSpace=wrap;collapsible=0;dropTarget=0;pointerEvents=0;fillColor=none;top=0;left=0;bottom=0;right=0;points=[[0,0.5],[1,0.5]];portConstraint=eastwest;strokeColor=#0F8B8D;fontColor=#143642;" parent="120" vertex="1">
                    <mxGeometry y="60" width="210" height="30" as="geometry"/>
                </mxCell>
                <mxCell id="ivW9iHV96__MKiOfjKR5-310" value="FK" style="shape=partialRectangle;html=1;whiteSpace=wrap;connectable=0;fillColor=none;top=0;left=0;bottom=0;right=0;overflow=hidden;strokeColor=#0F8B8D;fontColor=#143642;" parent="ivW9iHV96__MKiOfjKR5-309" vertex="1">
                    <mxGeometry width="28" height="30" as="geometry"/>
                </mxCell>
                <mxCell id="ivW9iHV96__MKiOfjKR5-311" value="&lt;span&gt;ShipperID&lt;/span&gt;" style="shape=partialRectangle;html=1;whiteSpace=wrap;connectable=0;fillColor=none;top=0;left=0;bottom=0;right=0;overflow=hidden;strokeColor=#0F8B8D;fontColor=#143642;" parent="ivW9iHV96__MKiOfjKR5-309" vertex="1">
                    <mxGeometry x="28" width="100" height="30" as="geometry"/>
                </mxCell>
                <mxCell id="ivW9iHV96__MKiOfjKR5-312" value="&lt;span&gt;INT(10)&lt;/span&gt;" style="shape=partialRectangle;html=1;whiteSpace=wrap;connectable=0;fillColor=none;top=0;left=0;bottom=0;right=0;overflow=hidden;strokeColor=#0F8B8D;fontColor=#143642;" parent="ivW9iHV96__MKiOfjKR5-309" vertex="1">
                    <mxGeometry x="128" width="82" height="30" as="geometry"/>
                </mxCell>
                <mxCell id="247" style="shape=partialRectangle;html=1;whiteSpace=wrap;collapsible=0;dropTarget=0;pointerEvents=0;fillColor=none;top=0;left=0;bottom=0;right=0;points=[[0,0.5],[1,0.5]];portConstraint=eastwest;strokeColor=#0F8B8D;fontColor=#143642;" parent="120" vertex="1">
                    <mxGeometry y="90" width="210" height="34" as="geometry"/>
                </mxCell>
                <mxCell id="248" value="FK" style="shape=partialRectangle;html=1;whiteSpace=wrap;connectable=0;fillColor=none;top=0;left=0;bottom=0;right=0;overflow=hidden;strokeColor=#0F8B8D;fontColor=#143642;" parent="247" vertex="1">
                    <mxGeometry width="28" height="34" as="geometry"/>
                </mxCell>
                <mxCell id="249" value="CustomerID" style="shape=partialRectangle;html=1;whiteSpace=wrap;connectable=0;fillColor=none;top=0;left=0;bottom=0;right=0;overflow=hidden;strokeColor=#0F8B8D;fontColor=#143642;" parent="247" vertex="1">
                    <mxGeometry x="28" width="100" height="34" as="geometry"/>
                </mxCell>
                <mxCell id="250" value="&lt;span&gt;INT(10)&lt;/span&gt;" style="shape=partialRectangle;html=1;whiteSpace=wrap;connectable=0;fillColor=none;top=0;left=0;bottom=0;right=0;overflow=hidden;strokeColor=#0F8B8D;fontColor=#143642;" parent="247" vertex="1">
                    <mxGeometry x="128" width="82" height="34" as="geometry"/>
                </mxCell>
                <mxCell id="266" style="shape=partialRectangle;html=1;whiteSpace=wrap;collapsible=0;dropTarget=0;pointerEvents=0;fillColor=none;top=0;left=0;bottom=0;right=0;points=[[0,0.5],[1,0.5]];portConstraint=eastwest;strokeColor=#0F8B8D;fontColor=#143642;" parent="120" vertex="1">
                    <mxGeometry y="124" width="210" height="30" as="geometry"/>
                </mxCell>
                <mxCell id="267" style="shape=partialRectangle;html=1;whiteSpace=wrap;connectable=0;fillColor=none;top=0;left=0;bottom=0;right=0;overflow=hidden;strokeColor=#0F8B8D;fontColor=#143642;" parent="266" vertex="1">
                    <mxGeometry width="28" height="30" as="geometry"/>
                </mxCell>
                <mxCell id="268" value="orderDate" style="shape=partialRectangle;html=1;whiteSpace=wrap;connectable=0;fillColor=none;top=0;left=0;bottom=0;right=0;overflow=hidden;strokeColor=#0F8B8D;fontColor=#143642;" parent="266" vertex="1">
                    <mxGeometry x="28" width="100" height="30" as="geometry"/>
                </mxCell>
                <mxCell id="269" value="INT(6)" style="shape=partialRectangle;html=1;whiteSpace=wrap;connectable=0;fillColor=none;top=0;left=0;bottom=0;right=0;overflow=hidden;strokeColor=#0F8B8D;fontColor=#143642;" parent="266" vertex="1">
                    <mxGeometry x="128" width="82" height="30" as="geometry"/>
                </mxCell>
                <mxCell id="156" style="shape=partialRectangle;html=1;whiteSpace=wrap;collapsible=0;dropTarget=0;pointerEvents=0;fillColor=none;top=0;left=0;bottom=0;right=0;points=[[0,0.5],[1,0.5]];portConstraint=eastwest;strokeColor=#0F8B8D;fontColor=#143642;" parent="120" vertex="1">
                    <mxGeometry y="154" width="210" height="29" as="geometry"/>
                </mxCell>
                <mxCell id="157" style="shape=partialRectangle;html=1;whiteSpace=wrap;connectable=0;fillColor=none;top=0;left=0;bottom=0;right=0;overflow=hidden;strokeColor=#0F8B8D;fontColor=#143642;" parent="156" vertex="1">
                    <mxGeometry width="28" height="29" as="geometry"/>
                </mxCell>
                <mxCell id="158" value="ShippingAdress" style="shape=partialRectangle;html=1;whiteSpace=wrap;connectable=0;fillColor=none;top=0;left=0;bottom=0;right=0;overflow=hidden;strokeColor=#0F8B8D;fontColor=#143642;" parent="156" vertex="1">
                    <mxGeometry x="28" width="100" height="29" as="geometry"/>
                </mxCell>
                <mxCell id="159" value="VARCHAR(3)" style="shape=partialRectangle;html=1;whiteSpace=wrap;connectable=0;fillColor=none;top=0;left=0;bottom=0;right=0;overflow=hidden;strokeColor=#0F8B8D;fontColor=#143642;" parent="156" vertex="1">
                    <mxGeometry x="128" width="82" height="29" as="geometry"/>
                </mxCell>
                <mxCell id="125" value="" style="shape=partialRectangle;html=1;whiteSpace=wrap;collapsible=0;dropTarget=0;pointerEvents=0;fillColor=none;top=0;left=0;bottom=0;right=0;points=[[0,0.5],[1,0.5]];portConstraint=eastwest;strokeColor=#0F8B8D;fontColor=#143642;" parent="120" vertex="1">
                    <mxGeometry y="183" width="210" height="28" as="geometry"/>
                </mxCell>
                <mxCell id="126" value="" style="shape=partialRectangle;html=1;whiteSpace=wrap;connectable=0;fillColor=none;top=0;left=0;bottom=0;right=0;overflow=hidden;strokeColor=#0F8B8D;fontColor=#143642;" parent="125" vertex="1">
                    <mxGeometry width="28" height="28" as="geometry"/>
                </mxCell>
                <mxCell id="127" value="&lt;span style=&quot;text-align: left&quot;&gt;ShippingDate&lt;/span&gt;" style="shape=partialRectangle;html=1;whiteSpace=wrap;connectable=0;fillColor=none;top=0;left=0;bottom=0;right=0;overflow=hidden;strokeColor=#0F8B8D;fontColor=#143642;" parent="125" vertex="1">
                    <mxGeometry x="28" width="100" height="28" as="geometry"/>
                </mxCell>
                <mxCell id="128" value="&lt;span&gt;INT(6)&lt;/span&gt;" style="shape=partialRectangle;html=1;whiteSpace=wrap;connectable=0;fillColor=none;top=0;left=0;bottom=0;right=0;overflow=hidden;strokeColor=#0F8B8D;fontColor=#143642;" parent="125" vertex="1">
                    <mxGeometry x="128" width="82" height="28" as="geometry"/>
                </mxCell>
                <mxCell id="160" style="shape=partialRectangle;html=1;whiteSpace=wrap;collapsible=0;dropTarget=0;pointerEvents=0;fillColor=none;top=0;left=0;bottom=0;right=0;points=[[0,0.5],[1,0.5]];portConstraint=eastwest;strokeColor=#0F8B8D;fontColor=#143642;" parent="120" vertex="1">
                    <mxGeometry y="211" width="210" height="29" as="geometry"/>
                </mxCell>
                <mxCell id="161" style="shape=partialRectangle;html=1;whiteSpace=wrap;connectable=0;fillColor=none;top=0;left=0;bottom=0;right=0;overflow=hidden;strokeColor=#0F8B8D;fontColor=#143642;" parent="160" vertex="1">
                    <mxGeometry width="28" height="29" as="geometry"/>
                </mxCell>
                <mxCell id="162" value="ShippingCountry" style="shape=partialRectangle;html=1;whiteSpace=wrap;connectable=0;fillColor=none;top=0;left=0;bottom=0;right=0;overflow=hidden;strokeColor=#0F8B8D;fontColor=#143642;" parent="160" vertex="1">
                    <mxGeometry x="28" width="100" height="29" as="geometry"/>
                </mxCell>
                <mxCell id="163" value="VARCHAR(3)" style="shape=partialRectangle;html=1;whiteSpace=wrap;connectable=0;fillColor=none;top=0;left=0;bottom=0;right=0;overflow=hidden;strokeColor=#0F8B8D;fontColor=#143642;" parent="160" vertex="1">
                    <mxGeometry x="128" width="82" height="29" as="geometry"/>
                </mxCell>
                <mxCell id="188" style="shape=partialRectangle;html=1;whiteSpace=wrap;collapsible=0;dropTarget=0;pointerEvents=0;fillColor=none;top=0;left=0;bottom=0;right=0;points=[[0,0.5],[1,0.5]];portConstraint=eastwest;strokeColor=#0F8B8D;fontColor=#143642;" parent="120" vertex="1">
                    <mxGeometry y="240" width="210" height="29" as="geometry"/>
                </mxCell>
                <mxCell id="189" style="shape=partialRectangle;html=1;whiteSpace=wrap;connectable=0;fillColor=none;top=0;left=0;bottom=0;right=0;overflow=hidden;strokeColor=#0F8B8D;fontColor=#143642;" parent="188" vertex="1">
                    <mxGeometry width="28" height="29" as="geometry"/>
                </mxCell>
                <mxCell id="190" value="&lt;span&gt;Shipping ZIP&lt;/span&gt;" style="shape=partialRectangle;html=1;whiteSpace=wrap;connectable=0;fillColor=none;top=0;left=0;bottom=0;right=0;overflow=hidden;strokeColor=#0F8B8D;fontColor=#143642;" parent="188" vertex="1">
                    <mxGeometry x="28" width="100" height="29" as="geometry"/>
                </mxCell>
                <mxCell id="191" value="&lt;span&gt;INT(6)&lt;/span&gt;" style="shape=partialRectangle;html=1;whiteSpace=wrap;connectable=0;fillColor=none;top=0;left=0;bottom=0;right=0;overflow=hidden;strokeColor=#0F8B8D;fontColor=#143642;" parent="188" vertex="1">
                    <mxGeometry x="128" width="82" height="29" as="geometry"/>
                </mxCell>
                <mxCell id="7CMeh297SP7o4FMxIKgV-285" style="shape=partialRectangle;html=1;whiteSpace=wrap;collapsible=0;dropTarget=0;pointerEvents=0;fillColor=none;top=0;left=0;bottom=0;right=0;points=[[0,0.5],[1,0.5]];portConstraint=eastwest;strokeColor=#0F8B8D;fontColor=#143642;" parent="120" vertex="1">
                    <mxGeometry y="269" width="210" height="29" as="geometry"/>
                </mxCell>
                <mxCell id="7CMeh297SP7o4FMxIKgV-286" style="shape=partialRectangle;html=1;whiteSpace=wrap;connectable=0;fillColor=none;top=0;left=0;bottom=0;right=0;overflow=hidden;strokeColor=#0F8B8D;fontColor=#143642;" parent="7CMeh297SP7o4FMxIKgV-285" vertex="1">
                    <mxGeometry width="28" height="29" as="geometry"/>
                </mxCell>
                <mxCell id="7CMeh297SP7o4FMxIKgV-287" value="TotalPrice" style="shape=partialRectangle;html=1;whiteSpace=wrap;connectable=0;fillColor=none;top=0;left=0;bottom=0;right=0;overflow=hidden;strokeColor=#0F8B8D;fontColor=#143642;" parent="7CMeh297SP7o4FMxIKgV-285" vertex="1">
                    <mxGeometry x="28" width="100" height="29" as="geometry"/>
                </mxCell>
                <mxCell id="7CMeh297SP7o4FMxIKgV-288" value="FLOAT(4)" style="shape=partialRectangle;html=1;whiteSpace=wrap;connectable=0;fillColor=none;top=0;left=0;bottom=0;right=0;overflow=hidden;strokeColor=#0F8B8D;fontColor=#143642;" parent="7CMeh297SP7o4FMxIKgV-285" vertex="1">
                    <mxGeometry x="128" width="82" height="29" as="geometry"/>
                </mxCell>
                <mxCell id="138" value="SHIPPER" style="shape=table;html=1;whiteSpace=wrap;startSize=30;container=1;collapsible=0;childLayout=tableLayout;fontStyle=1;align=center;fillColor=#FAE5C7;strokeColor=#0F8B8D;fontColor=#143642;" parent="1" vertex="1">
                    <mxGeometry x="279" y="672" width="235.6470588235295" height="177" as="geometry"/>
                </mxCell>
                <mxCell id="139" value="" style="shape=partialRectangle;html=1;whiteSpace=wrap;collapsible=0;dropTarget=0;pointerEvents=0;fillColor=none;top=0;left=0;bottom=0;right=0;points=[[0,0.5],[1,0.5]];portConstraint=eastwest;strokeColor=#0F8B8D;fontColor=#143642;" parent="138" vertex="1">
                    <mxGeometry y="30" width="235.6470588235295" height="30" as="geometry"/>
                </mxCell>
                <mxCell id="140" value="PK" style="shape=partialRectangle;html=1;whiteSpace=wrap;connectable=0;fillColor=none;top=0;left=0;bottom=0;right=0;overflow=hidden;strokeColor=#0F8B8D;fontColor=#143642;" parent="139" vertex="1">
                    <mxGeometry width="30" height="30" as="geometry"/>
                </mxCell>
                <mxCell id="141" value="ShipperID" style="shape=partialRectangle;html=1;whiteSpace=wrap;connectable=0;fillColor=none;top=0;left=0;bottom=0;right=0;overflow=hidden;strokeColor=#0F8B8D;fontColor=#143642;" parent="139" vertex="1">
                    <mxGeometry x="30" width="102" height="30" as="geometry"/>
                </mxCell>
                <mxCell id="142" value="INT(10)" style="shape=partialRectangle;html=1;whiteSpace=wrap;connectable=0;fillColor=none;top=0;left=0;bottom=0;right=0;overflow=hidden;strokeColor=#0F8B8D;fontColor=#143642;" parent="139" vertex="1">
                    <mxGeometry x="132" width="104" height="30" as="geometry"/>
                </mxCell>
                <mxCell id="228" style="shape=partialRectangle;html=1;whiteSpace=wrap;collapsible=0;dropTarget=0;pointerEvents=0;fillColor=none;top=0;left=0;bottom=0;right=0;points=[[0,0.5],[1,0.5]];portConstraint=eastwest;strokeColor=#0F8B8D;fontColor=#143642;" parent="138" vertex="1">
                    <mxGeometry y="60" width="235.6470588235295" height="30" as="geometry"/>
                </mxCell>
                <mxCell id="229" value="FK" style="shape=partialRectangle;html=1;whiteSpace=wrap;connectable=0;fillColor=none;top=0;left=0;bottom=0;right=0;overflow=hidden;strokeColor=#0F8B8D;fontColor=#143642;" parent="228" vertex="1">
                    <mxGeometry width="30" height="30" as="geometry"/>
                </mxCell>
                <mxCell id="230" value="OrderID" style="shape=partialRectangle;html=1;whiteSpace=wrap;connectable=0;fillColor=none;top=0;left=0;bottom=0;right=0;overflow=hidden;strokeColor=#0F8B8D;fontColor=#143642;" parent="228" vertex="1">
                    <mxGeometry x="30" width="102" height="30" as="geometry"/>
                </mxCell>
                <mxCell id="231" value="&lt;span&gt;INT(10)&lt;/span&gt;" style="shape=partialRectangle;html=1;whiteSpace=wrap;connectable=0;fillColor=none;top=0;left=0;bottom=0;right=0;overflow=hidden;strokeColor=#0F8B8D;fontColor=#143642;" parent="228" vertex="1">
                    <mxGeometry x="132" width="104" height="30" as="geometry"/>
                </mxCell>
                <mxCell id="148" style="shape=partialRectangle;html=1;whiteSpace=wrap;collapsible=0;dropTarget=0;pointerEvents=0;fillColor=none;top=0;left=0;bottom=0;right=0;points=[[0,0.5],[1,0.5]];portConstraint=eastwest;strokeColor=#0F8B8D;fontColor=#143642;" parent="138" vertex="1">
                    <mxGeometry y="90" width="235.6470588235295" height="29" as="geometry"/>
                </mxCell>
                <mxCell id="149" style="shape=partialRectangle;html=1;whiteSpace=wrap;connectable=0;fillColor=none;top=0;left=0;bottom=0;right=0;overflow=hidden;strokeColor=#0F8B8D;fontColor=#143642;" parent="148" vertex="1">
                    <mxGeometry width="30" height="29" as="geometry"/>
                </mxCell>
                <mxCell id="150" value="&lt;span style=&quot;text-align: left&quot;&gt;Method&lt;/span&gt;" style="shape=partialRectangle;html=1;whiteSpace=wrap;connectable=0;fillColor=none;top=0;left=0;bottom=0;right=0;overflow=hidden;strokeColor=#0F8B8D;fontColor=#143642;" parent="148" vertex="1">
                    <mxGeometry x="30" width="102" height="29" as="geometry"/>
                </mxCell>
                <mxCell id="151" value="VARCHAR(6)" style="shape=partialRectangle;html=1;whiteSpace=wrap;connectable=0;fillColor=none;top=0;left=0;bottom=0;right=0;overflow=hidden;strokeColor=#0F8B8D;fontColor=#143642;" parent="148" vertex="1">
                    <mxGeometry x="132" width="104" height="29" as="geometry"/>
                </mxCell>
                <mxCell id="152" style="shape=partialRectangle;html=1;whiteSpace=wrap;collapsible=0;dropTarget=0;pointerEvents=0;fillColor=none;top=0;left=0;bottom=0;right=0;points=[[0,0.5],[1,0.5]];portConstraint=eastwest;strokeColor=#0F8B8D;fontColor=#143642;" parent="138" vertex="1">
                    <mxGeometry y="119" width="235.6470588235295" height="29" as="geometry"/>
                </mxCell>
                <mxCell id="153" style="shape=partialRectangle;html=1;whiteSpace=wrap;connectable=0;fillColor=none;top=0;left=0;bottom=0;right=0;overflow=hidden;strokeColor=#0F8B8D;fontColor=#143642;" parent="152" vertex="1">
                    <mxGeometry width="30" height="29" as="geometry"/>
                </mxCell>
                <mxCell id="154" value="&lt;span style=&quot;text-align: left&quot;&gt;Price&lt;/span&gt;" style="shape=partialRectangle;html=1;whiteSpace=wrap;connectable=0;fillColor=none;top=0;left=0;bottom=0;right=0;overflow=hidden;strokeColor=#0F8B8D;fontColor=#143642;" parent="152" vertex="1">
                    <mxGeometry x="30" width="102" height="29" as="geometry"/>
                </mxCell>
                <mxCell id="155" value="&lt;span&gt;INT(10)&lt;/span&gt;" style="shape=partialRectangle;html=1;whiteSpace=wrap;connectable=0;fillColor=none;top=0;left=0;bottom=0;right=0;overflow=hidden;strokeColor=#0F8B8D;fontColor=#143642;" parent="152" vertex="1">
                    <mxGeometry x="132" width="104" height="29" as="geometry"/>
                </mxCell>
                <mxCell id="143" value="" style="shape=partialRectangle;html=1;whiteSpace=wrap;collapsible=0;dropTarget=0;pointerEvents=0;fillColor=none;top=0;left=0;bottom=0;right=0;points=[[0,0.5],[1,0.5]];portConstraint=eastwest;strokeColor=#0F8B8D;fontColor=#143642;" parent="138" vertex="1">
                    <mxGeometry y="148" width="235.6470588235295" height="29" as="geometry"/>
                </mxCell>
                <mxCell id="144" value="" style="shape=partialRectangle;html=1;whiteSpace=wrap;connectable=0;fillColor=none;top=0;left=0;bottom=0;right=0;overflow=hidden;strokeColor=#0F8B8D;fontColor=#143642;" parent="143" vertex="1">
                    <mxGeometry width="30" height="29" as="geometry"/>
                </mxCell>
                <mxCell id="145" value="&lt;span style=&quot;text-align: left&quot;&gt;Name&lt;/span&gt;" style="shape=partialRectangle;html=1;whiteSpace=wrap;connectable=0;fillColor=none;top=0;left=0;bottom=0;right=0;overflow=hidden;strokeColor=#0F8B8D;fontColor=#143642;" parent="143" vertex="1">
                    <mxGeometry x="30" width="102" height="29" as="geometry"/>
                </mxCell>
                <mxCell id="146" value="VARCHAR(20)" style="shape=partialRectangle;html=1;whiteSpace=wrap;connectable=0;fillColor=none;top=0;left=0;bottom=0;right=0;overflow=hidden;strokeColor=#0F8B8D;fontColor=#143642;" parent="143" vertex="1">
                    <mxGeometry x="132" width="104" height="29" as="geometry"/>
                </mxCell>
                <mxCell id="ivW9iHV96__MKiOfjKR5-272" value="CATEGORY" style="shape=table;html=1;whiteSpace=wrap;startSize=30;container=1;collapsible=0;childLayout=tableLayout;fontStyle=1;align=center;fillColor=#FAE5C7;strokeColor=#0F8B8D;fontColor=#143642;" parent="1" vertex="1">
                    <mxGeometry x="73" y="62" width="224.50000000000006" height="119" as="geometry"/>
                </mxCell>
                <mxCell id="ivW9iHV96__MKiOfjKR5-273" value="" style="shape=partialRectangle;html=1;whiteSpace=wrap;collapsible=0;dropTarget=0;pointerEvents=0;fillColor=none;top=0;left=0;bottom=0;right=0;points=[[0,0.5],[1,0.5]];portConstraint=eastwest;strokeColor=#0F8B8D;fontColor=#143642;" parent="ivW9iHV96__MKiOfjKR5-272" vertex="1">
                    <mxGeometry y="30" width="224.50000000000006" height="30" as="geometry"/>
                </mxCell>
                <mxCell id="ivW9iHV96__MKiOfjKR5-274" value="PK" style="shape=partialRectangle;html=1;whiteSpace=wrap;connectable=0;fillColor=none;top=0;left=0;bottom=0;right=0;overflow=hidden;strokeColor=#0F8B8D;fontColor=#143642;" parent="ivW9iHV96__MKiOfjKR5-273" vertex="1">
                    <mxGeometry width="30" height="30" as="geometry"/>
                </mxCell>
                <mxCell id="ivW9iHV96__MKiOfjKR5-275" value="CategoryID" style="shape=partialRectangle;html=1;whiteSpace=wrap;connectable=0;fillColor=none;top=0;left=0;bottom=0;right=0;overflow=hidden;strokeColor=#0F8B8D;fontColor=#143642;" parent="ivW9iHV96__MKiOfjKR5-273" vertex="1">
                    <mxGeometry x="30" width="102" height="30" as="geometry"/>
                </mxCell>
                <mxCell id="ivW9iHV96__MKiOfjKR5-276" value="INT(10)" style="shape=partialRectangle;html=1;whiteSpace=wrap;connectable=0;fillColor=none;top=0;left=0;bottom=0;right=0;overflow=hidden;strokeColor=#0F8B8D;fontColor=#143642;" parent="ivW9iHV96__MKiOfjKR5-273" vertex="1">
                    <mxGeometry x="132" width="93" height="30" as="geometry"/>
                </mxCell>
                <mxCell id="ivW9iHV96__MKiOfjKR5-281" value="" style="shape=partialRectangle;html=1;whiteSpace=wrap;collapsible=0;dropTarget=0;pointerEvents=0;fillColor=none;top=0;left=0;bottom=0;right=0;points=[[0,0.5],[1,0.5]];portConstraint=eastwest;strokeColor=#0F8B8D;fontColor=#143642;" parent="ivW9iHV96__MKiOfjKR5-272" vertex="1">
                    <mxGeometry y="60" width="224.50000000000006" height="29" as="geometry"/>
                </mxCell>
                <mxCell id="ivW9iHV96__MKiOfjKR5-282" value="" style="shape=partialRectangle;html=1;whiteSpace=wrap;connectable=0;fillColor=none;top=0;left=0;bottom=0;right=0;overflow=hidden;strokeColor=#0F8B8D;fontColor=#143642;" parent="ivW9iHV96__MKiOfjKR5-281" vertex="1">
                    <mxGeometry width="30" height="29" as="geometry"/>
                </mxCell>
                <mxCell id="ivW9iHV96__MKiOfjKR5-283" value="CategoryName" style="shape=partialRectangle;html=1;whiteSpace=wrap;connectable=0;fillColor=none;top=0;left=0;bottom=0;right=0;overflow=hidden;strokeColor=#0F8B8D;fontColor=#143642;" parent="ivW9iHV96__MKiOfjKR5-281" vertex="1">
                    <mxGeometry x="30" width="102" height="29" as="geometry"/>
                </mxCell>
                <mxCell id="ivW9iHV96__MKiOfjKR5-284" value="&lt;span&gt;VARCHAR(100)&lt;/span&gt;" style="shape=partialRectangle;html=1;whiteSpace=wrap;connectable=0;fillColor=none;top=0;left=0;bottom=0;right=0;overflow=hidden;strokeColor=#0F8B8D;fontColor=#143642;" parent="ivW9iHV96__MKiOfjKR5-281" vertex="1">
                    <mxGeometry x="132" width="93" height="29" as="geometry"/>
                </mxCell>
                <mxCell id="ivW9iHV96__MKiOfjKR5-285" value="" style="shape=partialRectangle;html=1;whiteSpace=wrap;collapsible=0;dropTarget=0;pointerEvents=0;fillColor=none;top=0;left=0;bottom=0;right=0;points=[[0,0.5],[1,0.5]];portConstraint=eastwest;strokeColor=#0F8B8D;fontColor=#143642;" parent="ivW9iHV96__MKiOfjKR5-272" vertex="1">
                    <mxGeometry y="89" width="224.50000000000006" height="30" as="geometry"/>
                </mxCell>
                <mxCell id="ivW9iHV96__MKiOfjKR5-286" value="" style="shape=partialRectangle;html=1;whiteSpace=wrap;connectable=0;fillColor=none;top=0;left=0;bottom=0;right=0;overflow=hidden;strokeColor=#0F8B8D;fontColor=#143642;" parent="ivW9iHV96__MKiOfjKR5-285" vertex="1">
                    <mxGeometry width="30" height="30" as="geometry"/>
                </mxCell>
                <mxCell id="ivW9iHV96__MKiOfjKR5-287" value="&lt;span style=&quot;text-align: left&quot;&gt;Description&lt;/span&gt;" style="shape=partialRectangle;html=1;whiteSpace=wrap;connectable=0;fillColor=none;top=0;left=0;bottom=0;right=0;overflow=hidden;strokeColor=#0F8B8D;fontColor=#143642;" parent="ivW9iHV96__MKiOfjKR5-285" vertex="1">
                    <mxGeometry x="30" width="102" height="30" as="geometry"/>
                </mxCell>
                <mxCell id="ivW9iHV96__MKiOfjKR5-288" value="&lt;span&gt;INT(6)&lt;/span&gt;" style="shape=partialRectangle;html=1;whiteSpace=wrap;connectable=0;fillColor=none;top=0;left=0;bottom=0;right=0;overflow=hidden;strokeColor=#0F8B8D;fontColor=#143642;" parent="ivW9iHV96__MKiOfjKR5-285" vertex="1">
                    <mxGeometry x="132" width="93" height="30" as="geometry"/>
                </mxCell>
                <mxCell id="ivW9iHV96__MKiOfjKR5-317" value="newsLetter" style="shape=table;html=1;whiteSpace=wrap;startSize=30;container=1;collapsible=0;childLayout=tableLayout;fontStyle=1;align=center;fillColor=#FAE5C7;strokeColor=#0F8B8D;fontColor=#143642;" parent="1" vertex="1">
                    <mxGeometry x="450" y="38" width="181.00000000000006" height="119" as="geometry"/>
                </mxCell>
                <mxCell id="ivW9iHV96__MKiOfjKR5-318" value="" style="shape=partialRectangle;html=1;whiteSpace=wrap;collapsible=0;dropTarget=0;pointerEvents=0;fillColor=none;top=0;left=0;bottom=0;right=0;points=[[0,0.5],[1,0.5]];portConstraint=eastwest;strokeColor=#0F8B8D;fontColor=#143642;" parent="ivW9iHV96__MKiOfjKR5-317" vertex="1">
                    <mxGeometry y="30" width="181.00000000000006" height="30" as="geometry"/>
                </mxCell>
                <mxCell id="ivW9iHV96__MKiOfjKR5-319" value="PK" style="shape=partialRectangle;html=1;whiteSpace=wrap;connectable=0;fillColor=none;top=0;left=0;bottom=0;right=0;overflow=hidden;strokeColor=#0F8B8D;fontColor=#143642;" parent="ivW9iHV96__MKiOfjKR5-318" vertex="1">
                    <mxGeometry width="30" height="30" as="geometry"/>
                </mxCell>
                <mxCell id="ivW9iHV96__MKiOfjKR5-320" value="CategoryID" style="shape=partialRectangle;html=1;whiteSpace=wrap;connectable=0;fillColor=none;top=0;left=0;bottom=0;right=0;overflow=hidden;strokeColor=#0F8B8D;fontColor=#143642;" parent="ivW9iHV96__MKiOfjKR5-318" vertex="1">
                    <mxGeometry x="30" width="102" height="30" as="geometry"/>
                </mxCell>
                <mxCell id="ivW9iHV96__MKiOfjKR5-321" value="INT(10)" style="shape=partialRectangle;html=1;whiteSpace=wrap;connectable=0;fillColor=none;top=0;left=0;bottom=0;right=0;overflow=hidden;strokeColor=#0F8B8D;fontColor=#143642;" parent="ivW9iHV96__MKiOfjKR5-318" vertex="1">
                    <mxGeometry x="132" width="49" height="30" as="geometry"/>
                </mxCell>
                <mxCell id="ivW9iHV96__MKiOfjKR5-322" value="" style="shape=partialRectangle;html=1;whiteSpace=wrap;collapsible=0;dropTarget=0;pointerEvents=0;fillColor=none;top=0;left=0;bottom=0;right=0;points=[[0,0.5],[1,0.5]];portConstraint=eastwest;strokeColor=#0F8B8D;fontColor=#143642;" parent="ivW9iHV96__MKiOfjKR5-317" vertex="1">
                    <mxGeometry y="60" width="181.00000000000006" height="29" as="geometry"/>
                </mxCell>
                <mxCell id="ivW9iHV96__MKiOfjKR5-323" value="" style="shape=partialRectangle;html=1;whiteSpace=wrap;connectable=0;fillColor=none;top=0;left=0;bottom=0;right=0;overflow=hidden;strokeColor=#0F8B8D;fontColor=#143642;" parent="ivW9iHV96__MKiOfjKR5-322" vertex="1">
                    <mxGeometry width="30" height="29" as="geometry"/>
                </mxCell>
                <mxCell id="ivW9iHV96__MKiOfjKR5-324" value="CategoryName" style="shape=partialRectangle;html=1;whiteSpace=wrap;connectable=0;fillColor=none;top=0;left=0;bottom=0;right=0;overflow=hidden;strokeColor=#0F8B8D;fontColor=#143642;" parent="ivW9iHV96__MKiOfjKR5-322" vertex="1">
                    <mxGeometry x="30" width="102" height="29" as="geometry"/>
                </mxCell>
                <mxCell id="ivW9iHV96__MKiOfjKR5-325" value="&lt;span&gt;VARCHAR(!%)&lt;/span&gt;" style="shape=partialRectangle;html=1;whiteSpace=wrap;connectable=0;fillColor=none;top=0;left=0;bottom=0;right=0;overflow=hidden;strokeColor=#0F8B8D;fontColor=#143642;" parent="ivW9iHV96__MKiOfjKR5-322" vertex="1">
                    <mxGeometry x="132" width="49" height="29" as="geometry"/>
                </mxCell>
                <mxCell id="ivW9iHV96__MKiOfjKR5-326" value="" style="shape=partialRectangle;html=1;whiteSpace=wrap;collapsible=0;dropTarget=0;pointerEvents=0;fillColor=none;top=0;left=0;bottom=0;right=0;points=[[0,0.5],[1,0.5]];portConstraint=eastwest;strokeColor=#0F8B8D;fontColor=#143642;" parent="ivW9iHV96__MKiOfjKR5-317" vertex="1">
                    <mxGeometry y="89" width="181.00000000000006" height="30" as="geometry"/>
                </mxCell>
                <mxCell id="ivW9iHV96__MKiOfjKR5-327" value="" style="shape=partialRectangle;html=1;whiteSpace=wrap;connectable=0;fillColor=none;top=0;left=0;bottom=0;right=0;overflow=hidden;strokeColor=#0F8B8D;fontColor=#143642;" parent="ivW9iHV96__MKiOfjKR5-326" vertex="1">
                    <mxGeometry width="30" height="30" as="geometry"/>
                </mxCell>
                <mxCell id="ivW9iHV96__MKiOfjKR5-328" value="&lt;span style=&quot;text-align: left&quot;&gt;Description&lt;/span&gt;" style="shape=partialRectangle;html=1;whiteSpace=wrap;connectable=0;fillColor=none;top=0;left=0;bottom=0;right=0;overflow=hidden;strokeColor=#0F8B8D;fontColor=#143642;" parent="ivW9iHV96__MKiOfjKR5-326" vertex="1">
                    <mxGeometry x="30" width="102" height="30" as="geometry"/>
                </mxCell>
                <mxCell id="ivW9iHV96__MKiOfjKR5-329" value="&lt;span&gt;INT(6)&lt;/span&gt;" style="shape=partialRectangle;html=1;whiteSpace=wrap;connectable=0;fillColor=none;top=0;left=0;bottom=0;right=0;overflow=hidden;strokeColor=#0F8B8D;fontColor=#143642;" parent="ivW9iHV96__MKiOfjKR5-326" vertex="1">
                    <mxGeometry x="132" width="49" height="30" as="geometry"/>
                </mxCell>
                <mxCell id="ivW9iHV96__MKiOfjKR5-372" value="orderDetails" style="shape=table;html=1;whiteSpace=wrap;startSize=30;container=1;collapsible=0;childLayout=tableLayout;fontStyle=1;align=center;fillColor=#FAE5C7;strokeColor=#0F8B8D;fontColor=#143642;" parent="1" vertex="1">
                    <mxGeometry x="351" y="418" width="195.70588235294144" height="177" as="geometry"/>
                </mxCell>
                <mxCell id="ivW9iHV96__MKiOfjKR5-373" value="" style="shape=partialRectangle;html=1;whiteSpace=wrap;collapsible=0;dropTarget=0;pointerEvents=0;fillColor=none;top=0;left=0;bottom=0;right=0;points=[[0,0.5],[1,0.5]];portConstraint=eastwest;strokeColor=#0F8B8D;fontColor=#143642;" parent="ivW9iHV96__MKiOfjKR5-372" vertex="1">
                    <mxGeometry y="30" width="195.70588235294144" height="30" as="geometry"/>
                </mxCell>
                <mxCell id="ivW9iHV96__MKiOfjKR5-374" value="CPK1" style="shape=partialRectangle;html=1;whiteSpace=wrap;connectable=0;fillColor=none;top=0;left=0;bottom=0;right=0;overflow=hidden;strokeColor=#0F8B8D;fontColor=#143642;" parent="ivW9iHV96__MKiOfjKR5-373" vertex="1">
                    <mxGeometry width="38" height="30" as="geometry"/>
                </mxCell>
                <mxCell id="ivW9iHV96__MKiOfjKR5-375" value="OrderID" style="shape=partialRectangle;html=1;whiteSpace=wrap;connectable=0;fillColor=none;top=0;left=0;bottom=0;right=0;overflow=hidden;strokeColor=#0F8B8D;fontColor=#143642;" parent="ivW9iHV96__MKiOfjKR5-373" vertex="1">
                    <mxGeometry x="38" width="94" height="30" as="geometry"/>
                </mxCell>
                <mxCell id="ivW9iHV96__MKiOfjKR5-376" value="INT(10)" style="shape=partialRectangle;html=1;whiteSpace=wrap;connectable=0;fillColor=none;top=0;left=0;bottom=0;right=0;overflow=hidden;strokeColor=#0F8B8D;fontColor=#143642;" parent="ivW9iHV96__MKiOfjKR5-373" vertex="1">
                    <mxGeometry x="132" width="64" height="30" as="geometry"/>
                </mxCell>
                <mxCell id="ivW9iHV96__MKiOfjKR5-377" style="shape=partialRectangle;html=1;whiteSpace=wrap;collapsible=0;dropTarget=0;pointerEvents=0;fillColor=none;top=0;left=0;bottom=0;right=0;points=[[0,0.5],[1,0.5]];portConstraint=eastwest;strokeColor=#0F8B8D;fontColor=#143642;" parent="ivW9iHV96__MKiOfjKR5-372" vertex="1">
                    <mxGeometry y="60" width="195.70588235294144" height="30" as="geometry"/>
                </mxCell>
                <mxCell id="ivW9iHV96__MKiOfjKR5-378" value="CPK2" style="shape=partialRectangle;html=1;whiteSpace=wrap;connectable=0;fillColor=none;top=0;left=0;bottom=0;right=0;overflow=hidden;strokeColor=#0F8B8D;fontColor=#143642;" parent="ivW9iHV96__MKiOfjKR5-377" vertex="1">
                    <mxGeometry width="38" height="30" as="geometry"/>
                </mxCell>
                <mxCell id="ivW9iHV96__MKiOfjKR5-379" value="ProductID" style="shape=partialRectangle;html=1;whiteSpace=wrap;connectable=0;fillColor=none;top=0;left=0;bottom=0;right=0;overflow=hidden;strokeColor=#0F8B8D;fontColor=#143642;" parent="ivW9iHV96__MKiOfjKR5-377" vertex="1">
                    <mxGeometry x="38" width="94" height="30" as="geometry"/>
                </mxCell>
                <mxCell id="ivW9iHV96__MKiOfjKR5-380" value="&lt;span&gt;INT(10)&lt;/span&gt;" style="shape=partialRectangle;html=1;whiteSpace=wrap;connectable=0;fillColor=none;top=0;left=0;bottom=0;right=0;overflow=hidden;strokeColor=#0F8B8D;fontColor=#143642;" parent="ivW9iHV96__MKiOfjKR5-377" vertex="1">
                    <mxGeometry x="132" width="64" height="30" as="geometry"/>
                </mxCell>
                <mxCell id="ivW9iHV96__MKiOfjKR5-381" style="shape=partialRectangle;html=1;whiteSpace=wrap;collapsible=0;dropTarget=0;pointerEvents=0;fillColor=none;top=0;left=0;bottom=0;right=0;points=[[0,0.5],[1,0.5]];portConstraint=eastwest;strokeColor=#0F8B8D;fontColor=#143642;" parent="ivW9iHV96__MKiOfjKR5-372" vertex="1">
                    <mxGeometry y="90" width="195.70588235294144" height="29" as="geometry"/>
                </mxCell>
                <mxCell id="ivW9iHV96__MKiOfjKR5-382" style="shape=partialRectangle;html=1;whiteSpace=wrap;connectable=0;fillColor=none;top=0;left=0;bottom=0;right=0;overflow=hidden;strokeColor=#0F8B8D;fontColor=#143642;" parent="ivW9iHV96__MKiOfjKR5-381" vertex="1">
                    <mxGeometry width="38" height="29" as="geometry"/>
                </mxCell>
                <mxCell id="ivW9iHV96__MKiOfjKR5-383" value="&lt;span style=&quot;text-align: left&quot;&gt;Quantity&lt;/span&gt;" style="shape=partialRectangle;html=1;whiteSpace=wrap;connectable=0;fillColor=none;top=0;left=0;bottom=0;right=0;overflow=hidden;strokeColor=#0F8B8D;fontColor=#143642;" parent="ivW9iHV96__MKiOfjKR5-381" vertex="1">
                    <mxGeometry x="38" width="94" height="29" as="geometry"/>
                </mxCell>
                <mxCell id="ivW9iHV96__MKiOfjKR5-384" value="INT(4)" style="shape=partialRectangle;html=1;whiteSpace=wrap;connectable=0;fillColor=none;top=0;left=0;bottom=0;right=0;overflow=hidden;strokeColor=#0F8B8D;fontColor=#143642;" parent="ivW9iHV96__MKiOfjKR5-381" vertex="1">
                    <mxGeometry x="132" width="64" height="29" as="geometry"/>
                </mxCell>
                <mxCell id="ivW9iHV96__MKiOfjKR5-385" style="shape=partialRectangle;html=1;whiteSpace=wrap;collapsible=0;dropTarget=0;pointerEvents=0;fillColor=none;top=0;left=0;bottom=0;right=0;points=[[0,0.5],[1,0.5]];portConstraint=eastwest;strokeColor=#0F8B8D;fontColor=#143642;" parent="ivW9iHV96__MKiOfjKR5-372" vertex="1">
                    <mxGeometry y="119" width="195.70588235294144" height="29" as="geometry"/>
                </mxCell>
                <mxCell id="ivW9iHV96__MKiOfjKR5-386" style="shape=partialRectangle;html=1;whiteSpace=wrap;connectable=0;fillColor=none;top=0;left=0;bottom=0;right=0;overflow=hidden;strokeColor=#0F8B8D;fontColor=#143642;" parent="ivW9iHV96__MKiOfjKR5-385" vertex="1">
                    <mxGeometry width="38" height="29" as="geometry"/>
                </mxCell>
                <mxCell id="ivW9iHV96__MKiOfjKR5-387" value="&lt;span style=&quot;text-align: left&quot;&gt;Price&lt;/span&gt;" style="shape=partialRectangle;html=1;whiteSpace=wrap;connectable=0;fillColor=none;top=0;left=0;bottom=0;right=0;overflow=hidden;strokeColor=#0F8B8D;fontColor=#143642;" parent="ivW9iHV96__MKiOfjKR5-385" vertex="1">
                    <mxGeometry x="38" width="94" height="29" as="geometry"/>
                </mxCell>
                <mxCell id="ivW9iHV96__MKiOfjKR5-388" value="&lt;span&gt;INT(6)&lt;/span&gt;" style="shape=partialRectangle;html=1;whiteSpace=wrap;connectable=0;fillColor=none;top=0;left=0;bottom=0;right=0;overflow=hidden;strokeColor=#0F8B8D;fontColor=#143642;" parent="ivW9iHV96__MKiOfjKR5-385" vertex="1">
                    <mxGeometry x="132" width="64" height="29" as="geometry"/>
                </mxCell>
                <mxCell id="7CMeh297SP7o4FMxIKgV-281" style="shape=partialRectangle;html=1;whiteSpace=wrap;collapsible=0;dropTarget=0;pointerEvents=0;fillColor=none;top=0;left=0;bottom=0;right=0;points=[[0,0.5],[1,0.5]];portConstraint=eastwest;strokeColor=#0F8B8D;fontColor=#143642;" parent="ivW9iHV96__MKiOfjKR5-372" vertex="1">
                    <mxGeometry y="148" width="195.70588235294144" height="29" as="geometry"/>
                </mxCell>
                <mxCell id="7CMeh297SP7o4FMxIKgV-282" style="shape=partialRectangle;html=1;whiteSpace=wrap;connectable=0;fillColor=none;top=0;left=0;bottom=0;right=0;overflow=hidden;strokeColor=#0F8B8D;fontColor=#143642;" parent="7CMeh297SP7o4FMxIKgV-281" vertex="1">
                    <mxGeometry width="38" height="29" as="geometry"/>
                </mxCell>
                <mxCell id="7CMeh297SP7o4FMxIKgV-283" value="sum" style="shape=partialRectangle;html=1;whiteSpace=wrap;connectable=0;fillColor=none;top=0;left=0;bottom=0;right=0;overflow=hidden;strokeColor=#0F8B8D;fontColor=#143642;" parent="7CMeh297SP7o4FMxIKgV-281" vertex="1">
                    <mxGeometry x="38" width="94" height="29" as="geometry"/>
                </mxCell>
                <mxCell id="7CMeh297SP7o4FMxIKgV-284" value="FLOAT(4')" style="shape=partialRectangle;html=1;whiteSpace=wrap;connectable=0;fillColor=none;top=0;left=0;bottom=0;right=0;overflow=hidden;strokeColor=#0F8B8D;fontColor=#143642;" parent="7CMeh297SP7o4FMxIKgV-281" vertex="1">
                    <mxGeometry x="132" width="64" height="29" as="geometry"/>
                </mxCell>
                <mxCell id="S2CIsZBpXwnliSbpIKQO-269" value="categoryDetails" style="shape=table;html=1;whiteSpace=wrap;startSize=30;container=1;collapsible=0;childLayout=tableLayout;fontStyle=1;align=center;fillColor=#FAE5C7;strokeColor=#0F8B8D;fontColor=#143642;" parent="1" vertex="1">
                    <mxGeometry x="67" y="255" width="181.00000000000006" height="89" as="geometry"/>
                </mxCell>
                <mxCell id="S2CIsZBpXwnliSbpIKQO-274" value="" style="shape=partialRectangle;html=1;whiteSpace=wrap;collapsible=0;dropTarget=0;pointerEvents=0;fillColor=none;top=0;left=0;bottom=0;right=0;points=[[0,0.5],[1,0.5]];portConstraint=eastwest;strokeColor=#0F8B8D;fontColor=#143642;" parent="S2CIsZBpXwnliSbpIKQO-269" vertex="1">
                    <mxGeometry y="30" width="181.00000000000006" height="29" as="geometry"/>
                </mxCell>
                <mxCell id="S2CIsZBpXwnliSbpIKQO-275" value="CPK1" style="shape=partialRectangle;html=1;whiteSpace=wrap;connectable=0;fillColor=none;top=0;left=0;bottom=0;right=0;overflow=hidden;strokeColor=#0F8B8D;fontColor=#143642;" parent="S2CIsZBpXwnliSbpIKQO-274" vertex="1">
                    <mxGeometry width="41" height="29" as="geometry"/>
                </mxCell>
                <mxCell id="S2CIsZBpXwnliSbpIKQO-276" value="ProductID" style="shape=partialRectangle;html=1;whiteSpace=wrap;connectable=0;fillColor=none;top=0;left=0;bottom=0;right=0;overflow=hidden;strokeColor=#0F8B8D;fontColor=#143642;" parent="S2CIsZBpXwnliSbpIKQO-274" vertex="1">
                    <mxGeometry x="41" width="91" height="29" as="geometry"/>
                </mxCell>
                <mxCell id="S2CIsZBpXwnliSbpIKQO-277" value="INT(10)" style="shape=partialRectangle;html=1;whiteSpace=wrap;connectable=0;fillColor=none;top=0;left=0;bottom=0;right=0;overflow=hidden;strokeColor=#0F8B8D;fontColor=#143642;" parent="S2CIsZBpXwnliSbpIKQO-274" vertex="1">
                    <mxGeometry x="132" width="49" height="29" as="geometry"/>
                </mxCell>
                <mxCell id="S2CIsZBpXwnliSbpIKQO-278" value="" style="shape=partialRectangle;html=1;whiteSpace=wrap;collapsible=0;dropTarget=0;pointerEvents=0;fillColor=none;top=0;left=0;bottom=0;right=0;points=[[0,0.5],[1,0.5]];portConstraint=eastwest;strokeColor=#0F8B8D;fontColor=#143642;" parent="S2CIsZBpXwnliSbpIKQO-269" vertex="1">
                    <mxGeometry y="59" width="181.00000000000006" height="30" as="geometry"/>
                </mxCell>
                <mxCell id="S2CIsZBpXwnliSbpIKQO-279" value="CPK2" style="shape=partialRectangle;html=1;whiteSpace=wrap;connectable=0;fillColor=none;top=0;left=0;bottom=0;right=0;overflow=hidden;strokeColor=#0F8B8D;fontColor=#143642;" parent="S2CIsZBpXwnliSbpIKQO-278" vertex="1">
                    <mxGeometry width="41" height="30" as="geometry"/>
                </mxCell>
                <mxCell id="S2CIsZBpXwnliSbpIKQO-280" value="&lt;div style=&quot;text-align: left&quot;&gt;&lt;span&gt;CategoryID&lt;/span&gt;&lt;/div&gt;" style="shape=partialRectangle;html=1;whiteSpace=wrap;connectable=0;fillColor=none;top=0;left=0;bottom=0;right=0;overflow=hidden;strokeColor=#0F8B8D;fontColor=#143642;" parent="S2CIsZBpXwnliSbpIKQO-278" vertex="1">
                    <mxGeometry x="41" width="91" height="30" as="geometry"/>
                </mxCell>
                <mxCell id="S2CIsZBpXwnliSbpIKQO-281" value="&lt;span&gt;INT(10)&lt;/span&gt;" style="shape=partialRectangle;html=1;whiteSpace=wrap;connectable=0;fillColor=none;top=0;left=0;bottom=0;right=0;overflow=hidden;strokeColor=#0F8B8D;fontColor=#143642;" parent="S2CIsZBpXwnliSbpIKQO-278" vertex="1">
                    <mxGeometry x="132" width="49" height="30" as="geometry"/>
                </mxCell>
                <mxCell id="f5SMzgVA7bW5Jj8AFidl-281" value="" style="endArrow=none;html=1;strokeColor=#CC0000;entryX=-0.023;entryY=0.055;entryDx=0;entryDy=0;endFill=0;exitX=1.005;exitY=0.063;exitDx=0;exitDy=0;exitPerimeter=0;entryPerimeter=0;" parent="1" source="ivW9iHV96__MKiOfjKR5-372" target="120" edge="1">
                    <mxGeometry relative="1" as="geometry">
                        <mxPoint x="514" y="496" as="sourcePoint"/>
                        <mxPoint x="674" y="496" as="targetPoint"/>
                    </mxGeometry>
                </mxCell>
                <mxCell id="f5SMzgVA7bW5Jj8AFidl-283" value="1..*" style="edgeLabel;resizable=0;html=1;align=left;verticalAlign=bottom;" parent="f5SMzgVA7bW5Jj8AFidl-281" connectable="0" vertex="1">
                    <mxGeometry x="-1" relative="1" as="geometry"/>
                </mxCell>
                <mxCell id="f5SMzgVA7bW5Jj8AFidl-284" value="1&lt;br&gt;" style="edgeLabel;resizable=0;html=1;align=right;verticalAlign=bottom;" parent="f5SMzgVA7bW5Jj8AFidl-281" connectable="0" vertex="1">
                    <mxGeometry x="1" relative="1" as="geometry"/>
                </mxCell>
                <mxCell id="f5SMzgVA7bW5Jj8AFidl-291" value="" style="endArrow=none;html=1;strokeColor=#CC0000;endFill=0;" parent="1" edge="1">
                    <mxGeometry relative="1" as="geometry">
                        <mxPoint x="515" y="697" as="sourcePoint"/>
                        <mxPoint x="626" y="692" as="targetPoint"/>
                    </mxGeometry>
                </mxCell>
                <mxCell id="f5SMzgVA7bW5Jj8AFidl-293" value="1" style="edgeLabel;resizable=0;html=1;align=left;verticalAlign=bottom;" parent="f5SMzgVA7bW5Jj8AFidl-291" connectable="0" vertex="1">
                    <mxGeometry x="-1" relative="1" as="geometry"/>
                </mxCell>
                <mxCell id="f5SMzgVA7bW5Jj8AFidl-294" value="0..*" style="edgeLabel;resizable=0;html=1;align=right;verticalAlign=bottom;" parent="f5SMzgVA7bW5Jj8AFidl-291" connectable="0" vertex="1">
                    <mxGeometry x="1" relative="1" as="geometry"/>
                </mxCell>
                <mxCell id="f5SMzgVA7bW5Jj8AFidl-302" value="" style="endArrow=none;html=1;strokeColor=#CC0000;endFill=0;entryX=0.002;entryY=0.063;entryDx=0;entryDy=0;exitX=1.005;exitY=0.092;exitDx=0;exitDy=0;exitPerimeter=0;entryPerimeter=0;" parent="1" source="YACHoL5docVy_mTdtGhY-1" target="ivW9iHV96__MKiOfjKR5-372" edge="1">
                    <mxGeometry relative="1" as="geometry">
                        <mxPoint x="255" y="437" as="sourcePoint"/>
                        <mxPoint x="323" y="437" as="targetPoint"/>
                        <Array as="points">
                            <mxPoint x="292" y="437"/>
                        </Array>
                    </mxGeometry>
                </mxCell>
                <mxCell id="f5SMzgVA7bW5Jj8AFidl-304" value="1" style="edgeLabel;resizable=0;html=1;align=left;verticalAlign=bottom;" parent="f5SMzgVA7bW5Jj8AFidl-302" connectable="0" vertex="1">
                    <mxGeometry x="-1" relative="1" as="geometry"/>
                </mxCell>
                <mxCell id="f5SMzgVA7bW5Jj8AFidl-305" value="1..*" style="edgeLabel;resizable=0;html=1;align=right;verticalAlign=bottom;" parent="f5SMzgVA7bW5Jj8AFidl-302" connectable="0" vertex="1">
                    <mxGeometry x="1" relative="1" as="geometry">
                        <mxPoint x="-15.530000000000001" y="-2" as="offset"/>
                    </mxGeometry>
                </mxCell>
                <mxCell id="f5SMzgVA7bW5Jj8AFidl-322" value="" style="endArrow=none;html=1;strokeColor=#CC0000;endFill=0;exitX=0.5;exitY=0;exitDx=0;exitDy=0;entryX=0.419;entryY=1.026;entryDx=0;entryDy=0;entryPerimeter=0;" parent="1" source="S2CIsZBpXwnliSbpIKQO-269" target="ivW9iHV96__MKiOfjKR5-285" edge="1">
                    <mxGeometry relative="1" as="geometry">
                        <mxPoint x="146" y="230" as="sourcePoint"/>
                        <mxPoint x="188" y="198" as="targetPoint"/>
                    </mxGeometry>
                </mxCell>
                <mxCell id="f5SMzgVA7bW5Jj8AFidl-323" value="1..*" style="edgeLabel;resizable=0;html=1;align=left;verticalAlign=bottom;" parent="f5SMzgVA7bW5Jj8AFidl-322" connectable="0" vertex="1">
                    <mxGeometry x="-1" relative="1" as="geometry">
                        <mxPoint x="18" as="offset"/>
                    </mxGeometry>
                </mxCell>
                <mxCell id="f5SMzgVA7bW5Jj8AFidl-324" value="1" style="edgeLabel;resizable=0;html=1;align=right;verticalAlign=bottom;" parent="f5SMzgVA7bW5Jj8AFidl-322" connectable="0" vertex="1">
                    <mxGeometry x="1" relative="1" as="geometry">
                        <mxPoint x="-9.91" y="19.97" as="offset"/>
                    </mxGeometry>
                </mxCell>
                <mxCell id="f5SMzgVA7bW5Jj8AFidl-325" value="" style="endArrow=none;html=1;strokeColor=#CC0000;entryX=0;entryY=0.074;entryDx=0;entryDy=0;entryPerimeter=0;endFill=0;" parent="1" target="72" edge="1">
                    <mxGeometry relative="1" as="geometry">
                        <mxPoint x="633" y="54" as="sourcePoint"/>
                        <mxPoint x="708" y="54" as="targetPoint"/>
                    </mxGeometry>
                </mxCell>
                <mxCell id="f5SMzgVA7bW5Jj8AFidl-327" value="0..1" style="edgeLabel;resizable=0;html=1;align=left;verticalAlign=bottom;" parent="f5SMzgVA7bW5Jj8AFidl-325" connectable="0" vertex="1">
                    <mxGeometry x="-1" relative="1" as="geometry"/>
                </mxCell>
                <mxCell id="f5SMzgVA7bW5Jj8AFidl-328" value="0..1" style="edgeLabel;resizable=0;html=1;align=right;verticalAlign=bottom;" parent="f5SMzgVA7bW5Jj8AFidl-325" connectable="0" vertex="1">
                    <mxGeometry x="1" relative="1" as="geometry">
                        <mxPoint x="-12.18" y="-2.13" as="offset"/>
                    </mxGeometry>
                </mxCell>
                <mxCell id="f5SMzgVA7bW5Jj8AFidl-329" value="" style="endArrow=none;html=1;strokeColor=#CC0000;endFill=0;" parent="1" edge="1">
                    <mxGeometry relative="1" as="geometry">
                        <mxPoint x="762" y="331" as="sourcePoint"/>
                        <mxPoint x="762" y="453" as="targetPoint"/>
                    </mxGeometry>
                </mxCell>
                <mxCell id="f5SMzgVA7bW5Jj8AFidl-331" value="1" style="edgeLabel;resizable=0;html=1;align=left;verticalAlign=bottom;" parent="f5SMzgVA7bW5Jj8AFidl-329" connectable="0" vertex="1">
                    <mxGeometry x="-1" relative="1" as="geometry">
                        <mxPoint x="5" y="27" as="offset"/>
                    </mxGeometry>
                </mxCell>
                <mxCell id="f5SMzgVA7bW5Jj8AFidl-332" value="0..*" style="edgeLabel;resizable=0;html=1;align=right;verticalAlign=bottom;" parent="f5SMzgVA7bW5Jj8AFidl-329" connectable="0" vertex="1">
                    <mxGeometry x="1" relative="1" as="geometry">
                        <mxPoint x="-13" y="-8.35" as="offset"/>
                    </mxGeometry>
                </mxCell>
                <mxCell id="f5SMzgVA7bW5Jj8AFidl-364" value="" style="endArrow=none;html=1;strokeColor=#CC0000;endFill=0;entryX=0.365;entryY=0.986;entryDx=0;entryDy=0;entryPerimeter=0;" parent="1" target="S2CIsZBpXwnliSbpIKQO-278" edge="1">
                    <mxGeometry relative="1" as="geometry">
                        <mxPoint x="123" y="430" as="sourcePoint"/>
                        <mxPoint x="120.99666666666685" y="358" as="targetPoint"/>
                    </mxGeometry>
                </mxCell>
                <mxCell id="f5SMzgVA7bW5Jj8AFidl-365" value="1" style="edgeLabel;resizable=0;html=1;align=left;verticalAlign=bottom;" parent="f5SMzgVA7bW5Jj8AFidl-364" connectable="0" vertex="1">
                    <mxGeometry x="-1" relative="1" as="geometry">
                        <mxPoint x="18" as="offset"/>
                    </mxGeometry>
                </mxCell>
                <mxCell id="f5SMzgVA7bW5Jj8AFidl-366" value="1..*" style="edgeLabel;resizable=0;html=1;align=right;verticalAlign=bottom;" parent="f5SMzgVA7bW5Jj8AFidl-364" connectable="0" vertex="1">
                    <mxGeometry x="1" relative="1" as="geometry">
                        <mxPoint x="-9.91" y="19.97" as="offset"/>
                    </mxGeometry>
                </mxCell>
            </root>
        </mxGraphModel>
    </diagram>
</mxfile>